# xmcd CD database file
#
# Track frame offsets:
#	150
#	2108
#	85135
#	114153
#	126660
#	160626
#	165912
#	237544
#	292695
#
# Disc length: 4616 seconds
#
# Revision: 0
# Processed by: cddbd v1.5.1PL0 Copyright (c) Steve Scherf et al.
# Submitted via: CDex 1.51
#
DISCID=65120609
DTITLE=Rollins, Sonny - Live in London
DYEAR=1965
DGENRE=Jazz
TTITLE0=Introduction by Ronnie Scott
TTITLE1=Medley
TTITLE2=My One and Only Love
TTITLE3=St. Thomas
TTITLE4=Blue-n-Boogie
TTITLE5=Playoff Music
TTITLE6=Four
TTITLE7=Now's The Time
TTITLE8=Interview
EXTD=YEAR: 1965
EXTT0=
EXTT1=
EXTT2=
EXTT3=
EXTT4=
EXTT5=
EXTT6=
EXTT7=
EXTT8=
PLAYORDER=
